HIERARCHY
ROOT hips
{
  OFFSET 0 10.6860622 2.3727825e-15
  CHANNELS 6 Xposition Yposition Zposition Yrotation Xrotation Zrotation
  JOINT leftUpperLeg
  {
    OFFSET 0.6642549969 -0.9402397400000004 0
    CHANNELS 3 Yrotation Xrotation Zrotation
    JOINT leftLowerLeg
    {
      OFFSET 0 -3.997221335632195 0
      CHANNELS 3 Yrotation Xrotation Zrotation
      JOINT leftFoot
      {
        OFFSET -0.13777839790000004 -4.6145792000000005 -0.22186036399999998
        CHANNELS 3 Yrotation Xrotation Zrotation
        JOINT leftToes
        {
          OFFSET -0.03777410834999995 -0.9130806927000008 0.85230013
          CHANNELS 3 Yrotation Xrotation Zrotation
          End Site
          {
            OFFSET -0.03777410834999995 -0.9130806927000008 0.85230013
          }
        }
      }
    }
  }
  JOINT rightUpperLeg
  {
    OFFSET -0.6642778626 -0.9402397400000004 0
    CHANNELS 3 Yrotation Xrotation Zrotation
    JOINT rightLowerLeg
    {
      OFFSET 0 -3.997221452859387 0
      CHANNELS 3 Yrotation Xrotation Zrotation
      JOINT rightFoot
      {
        OFFSET 0.1377926176 -4.6145792000000005 -0.22185782299999995
        CHANNELS 3 Yrotation Xrotation Zrotation
        JOINT rightToes
        {
          OFFSET 0.037780746850000047 -0.9130806927000008 0.85230167
          CHANNELS 3 Yrotation Xrotation Zrotation
          End Site
          {
            OFFSET 0.037780746850000047 -0.9130806927000008 0.85230167
          }
        }
      }
    }
  }
  JOINT spine
  {
    OFFSET 0 0.13988381660000015 0
    CHANNELS 3 Yrotation Xrotation Zrotation
    JOINT chest
    {
      OFFSET 0 0.6191039003973773 0
      CHANNELS 3 Yrotation Xrotation Zrotation
      JOINT upperChest
      {
        OFFSET 0 0.9855186130586943 0
        CHANNELS 3 Yrotation Xrotation Zrotation
        JOINT leftShoulder
        {
          OFFSET 0.1807663869 1.5087829790000005 0
          CHANNELS 3 Yrotation Xrotation Zrotation
          JOINT leftUpperArm
          {
            OFFSET 0.5985063006419806 0 0
            CHANNELS 3 Yrotation Xrotation Zrotation
            JOINT leftLowerArm
            {
              OFFSET 2.2993332369501065 0 0
              CHANNELS 3 Yrotation Xrotation Zrotation
              JOINT leftHand
              {
                OFFSET 2.395047042602395 0 0
                CHANNELS 3 Yrotation Xrotation Zrotation
                JOINT leftIndexProximal
                {
                  OFFSET 0.5766295810000004 0.04556643899499946 0.17265095988184
                  CHANNELS 3 Yrotation Xrotation Zrotation
                  JOINT leftIndexIntermediate
                  {
                    OFFSET 0.2957229000000008 -0.019352197700001517 -0.007932640616999987
                    CHANNELS 3 Yrotation Xrotation Zrotation
                    JOINT leftIndexDistal
                    {
                      OFFSET 0.19008243099999922 -0.012484908149998475 -0.002786250786000012
                      CHANNELS 3 Yrotation Xrotation Zrotation
                      End Site
                      {
                        OFFSET 0.19008243099999922 -0.012484908149998475 -0.002786250786000012
                      }
                    }
                  }
                }
                JOINT leftMiddleProximal
                {
                  OFFSET 0.5834975091000001 0.0524350405149987 0.02204081888183999
                  CHANNELS 3 Yrotation Xrotation Zrotation
                  JOINT leftMiddleIntermediate
                  {
                    OFFSET 0.33880573540000003 -0.019871473270000717 -0.00000971183179999946
                    CHANNELS 3 Yrotation Xrotation Zrotation
                    JOINT leftMiddleDistal
                    {
                      OFFSET 0.20676022730000088 -0.012221336379999448 0.0001471936708000235
                      CHANNELS 3 Yrotation Xrotation Zrotation
                      End Site
                      {
                        OFFSET 0.20676022730000088 -0.012221336379999448 0.0001471936708000235
                      }
                    }
                  }
                }
                JOINT leftLittleProximal
                {
                  OFFSET 0.5344154683999995 -0.012880921405001189 -0.24414037221816004
                  CHANNELS 3 Yrotation Xrotation Zrotation
                  JOINT leftLittleIntermediate
                  {
                    OFFSET 0.21758961730000093 -0.011650919939999227 0.011893592810000034
                    CHANNELS 3 Yrotation Xrotation Zrotation
                    JOINT leftLittleDistal
                    {
                      OFFSET 0.1475273964999999 -0.008152365682999818 0.006001092492999946
                      CHANNELS 3 Yrotation Xrotation Zrotation
                      End Site
                      {
                        OFFSET 0.1475273964999999 -0.008152365682999818 0.006001092492999946
                      }
                    }
                  }
                }
                JOINT leftRingProximal
                {
                  OFFSET 0.5799399463000003 0.026911854694997794 -0.12150566991816003
                  CHANNELS 3 Yrotation Xrotation Zrotation
                  JOINT leftRingIntermediate
                  {
                    OFFSET 0.26167887460000006 -0.013480186499999602 0.010996293000000053
                    CHANNELS 3 Yrotation Xrotation Zrotation
                    JOINT leftRingDistal
                    {
                      OFFSET 0.17667108799999987 -0.008990287899999228 0.0055541023999999065
                      CHANNELS 3 Yrotation Xrotation Zrotation
                      End Site
                      {
                        OFFSET 0.17667108799999987 -0.008990287899999228 0.0055541023999999065
                      }
                    }
                  }
                }
                JOINT leftThumbProximal
                {
                  OFFSET 0.11018806699999972 -0.09448718900500053 0.17047963138184
                  CHANNELS 3 Yrotation Xrotation Zrotation
                  JOINT leftThumbIntermediate
                  {
                    OFFSET 0.31062601459999983 -0.08126270900000132 0.15443142000000007
                    CHANNELS 3 Yrotation Xrotation Zrotation
                    JOINT leftThumbDistal
                    {
                      OFFSET 0.21627175790000086 -0.08833193599999878 0.018771167799999988
                      CHANNELS 3 Yrotation Xrotation Zrotation
                      End Site
                      {
                        OFFSET 0.21627175790000086 -0.08833193599999878 0.018771167799999988
                      }
                    }
                  }
                }
              }
            }
          }
        }
        JOINT neck
        {
          OFFSET 0 1.5463305265074576 0
          CHANNELS 3 Yrotation Xrotation Zrotation
          JOINT head
          {
            OFFSET 0 0.8456443600000344 0
            CHANNELS 3 Yrotation Xrotation Zrotation
            JOINT leftEye
            {
              OFFSET 0.30408573140000006 0.5104519199999995 0.1276382305
              CHANNELS 3 Yrotation Xrotation Zrotation
              End Site
              {
                OFFSET 0.30408573140000006 0.5104519199999995 0.1276382305
              }
            }
            JOINT rightEye
            {
              OFFSET -0.30409491089999996 0.5104519199999995 0.1276379445
              CHANNELS 3 Yrotation Xrotation Zrotation
              End Site
              {
                OFFSET -0.30409491089999996 0.5104519199999995 0.1276379445
              }
            }
            JOINT jaw
            {
              OFFSET -3.155239131000001e-7 -0.11984121820000082 0.60178107
              CHANNELS 3 Yrotation Xrotation Zrotation
              End Site
              {
                OFFSET -3.155239131000001e-7 -0.11984121820000082 0.60178107
              }
            }
          }
        }
        JOINT rightShoulder
        {
          OFFSET -0.1807303465 1.5087829790000005 0
          CHANNELS 3 Yrotation Xrotation Zrotation
          JOINT rightUpperArm
          {
            OFFSET -0.5985063796536958 0 0
            CHANNELS 3 Yrotation Xrotation Zrotation
            JOINT rightLowerArm
            {
              OFFSET -2.2993322059002854 0 0
              CHANNELS 3 Yrotation Xrotation Zrotation
              JOINT rightHand
              {
                OFFSET -2.395045314457259 0 0
                CHANNELS 3 Yrotation Xrotation Zrotation
                JOINT rightIndexProximal
                {
                  OFFSET -0.5764487688300002 0.0441371204405987 0.17361932004999997
                  CHANNELS 3 Yrotation Xrotation Zrotation
                  JOINT rightIndexIntermediate
                  {
                    OFFSET -0.29573011380000047 -0.01934826376999843 -0.007698921482999974
                    CHANNELS 3 Yrotation Xrotation Zrotation
                    JOINT rightIndexDistal
                    {
                      OFFSET -0.19008373999999884 -0.012503266380000655 -0.0026365778999999897
                      CHANNELS 3 Yrotation Xrotation Zrotation
                      End Site
                      {
                        OFFSET -0.19008373999999884 -0.012503266380000655 -0.0026365778999999897
                      }
                    }
                  }
                }
                JOINT rightMiddleProximal
                {
                  OFFSET -0.5834852037300005 0.05211639405060153 0.02307162440000001
                  CHANNELS 3 Yrotation Xrotation Zrotation
                  JOINT rightMiddleIntermediate
                  {
                    OFFSET -0.33880114510000003 -0.019952774050000954 0.0002455003561999819
                    CHANNELS 3 Yrotation Xrotation Zrotation
                    JOINT rightMiddleDistal
                    {
                      OFFSET -0.20675694929999955 -0.012273788999999091 0.00030209124000002766
                      CHANNELS 3 Yrotation Xrotation Zrotation
                      End Site
                      {
                        OFFSET -0.20675694929999955 -0.012273788999999091 0.00030209124000002766
                      }
                    }
                  }
                }
                JOINT rightLittleProximal
                {
                  OFFSET -0.5346811737299992 -0.011214256288399227 -0.24363941305000003
                  CHANNELS 3 Yrotation Xrotation Zrotation
                  JOINT rightLittleIntermediate
                  {
                    OFFSET -0.21757715980000092 -0.011771559690000988 0.01201554387
                    CHANNELS 3 Yrotation Xrotation Zrotation
                    JOINT rightLittleDistal
                    {
                      OFFSET -0.1475201849000004 -0.00822055339600003 0.006082065407000015
                      CHANNELS 3 Yrotation Xrotation Zrotation
                      End Site
                      {
                        OFFSET -0.1475201849000004 -0.00822055339600003 0.006082065407000015
                      }
                    }
                  }
                }
                JOINT rightRingProximal
                {
                  OFFSET -0.5800810755299999 0.027657985680600072 -0.12066365025000003
                  CHANNELS 3 Yrotation Xrotation Zrotation
                  JOINT rightRingIntermediate
                  {
                    OFFSET -0.26166445029999974 -0.013623118409999302 0.011164098990000045
                    CHANNELS 3 Yrotation Xrotation Zrotation
                    JOINT rightRingDistal
                    {
                      OFFSET -0.17666387530000027 -0.009072900100000503 0.005668185599999959
                      CHANNELS 3 Yrotation Xrotation Zrotation
                      End Site
                      {
                        OFFSET -0.17666387530000027 -0.009072900100000503 0.005668185599999959
                      }
                    }
                  }
                }
                JOINT rightThumbProximal
                {
                  OFFSET -0.10997596379000074 -0.09577489355940072 0.16989765924999997
                  CHANNELS 3 Yrotation Xrotation Zrotation
                  JOINT rightThumbIntermediate
                  {
                    OFFSET -0.31036620999999986 -0.08229339117999834 0.15440884469999996
                    CHANNELS 3 Yrotation Xrotation Zrotation
                    JOINT rightThumbDistal
                    {
                      OFFSET -0.21631306399999906 -0.08825326400000111 0.018656797720000014
                      CHANNELS 3 Yrotation Xrotation Zrotation
                      End Site
                      {
                        OFFSET -0.21631306399999906 -0.08825326400000111 0.018656797720000014
                      }
                    }
                  }
                }
              }
            }
          }
        }
      }
    }
  }
}
MOTION
Frames: 8
Frame Time: 0.03333333333333333
0 11.682712981546562 0 0 0 0 0 0 -5.826343164929014 -0.3712483961610101 -3.6333298826370974 5.838118207697276 0 0 0 0 0 0 0 0 5.826343164929014 0.3712483961610101 -3.6333298826370974 -5.838118207697276 0 0 0 0 0 0 0 -4.610651315171937 0 0 3.0831277533083026 0 0 0 0 0 1.5275236235667615 0 0 0 0 0 0 0 0 0 0 0 0 0 0 0 0 0 0 0 0 0 0 0 0 0 0 0 0 0 0 0 0 0 0 0 0 0 0 0 0 0 0 0 0 0 0 0 0 0 0 0 0 0 0 0 0 1.5275236235667615 0 0 0 0 0 0 0 0 0 0 0 0 0 0 1.5275236235667615 0 0 0 0 0 0 0 0 0 0 0 0 0 0 0 0 0 0 0 0 0 0 0 0 0 0 0 0 0 0 0 0 0 0 0 0 0 0 0 0 0 0 0 0 0 0 0 0 0 0 0 0 0 0 0
0.1346301259557403 -6.804969288327557 0.6796094897876822 -180 -16.002346741553602 -2.012319992884784e-15 -14.314196162186528 -3.984220509648276 35.878537991480385 166.50988554947102 72.47260190403563 170.89293298945688 -34.60835179389844 42.514120776042866 -37.16416541013381 0 0 0 13.013775316390861 -4.718159823122411 -34.10861483567367 -167.42179718067058 70.58749888175556 -171.85231286295516 31.08480493039154 41.199385673244244 34.998400111941905 0 0 0 -1.7521430966737794 59.640063316272986 -3.063833066337929 -0.5852295757102659 43.3529188922626 -1.4190166079354247 0 0 0 10.037791050802626 -19.78421619925002 -8.2377605164034 -92.74207162393348 -24.876465647281346 -38.88045574110046 -26.737769799221795 1.6885717772597835 45.88564095859824 8.276285338475658 19.439583928887977 23.980193965550576 0 0 0 0 0 0 0 0 0 0 0 0 0 0 0 0 0 0 0 0 0 0 0 0 0 0 0 0 0 0 0 0 0 0 0 0 0 0 0 0 0 0 0 0 0 0 -17.473549821606795 0 0 -2.0021958978194276 0 0 0 0 0 0 0 0 0 0 -10.775463835552618 -18.86869052206406 7.630116465527678 91.50824640331906 -23.907114573738045 38.67793805267364 27.88920601950438 2.430180127978225 -46.51140368836363 -8.315888625046437 16.21945198373364 -18.358753463724803 0 0 0 0 0 0 0 0 0 0 0 0 0 0 0 0 0 0 0 0 0 0 0 0 0 0 0 0 0 0 0 0 0 0 0 0 0 0 0 0 0 0 0 0 0
0.1346301259557403 -6.814106032223494 0.6897317701038552 -180 -15.202337515283146 -1.9067050989835494e-15 -14.899211220473967 -4.524873004426967 36.194293698572686 166.3275563807035 72.19893334785723 170.37992237087323 -35.03307542454771 42.400870337566246 -37.35290162651169 0 0 0 13.592953636807113 -5.298170920956292 -34.43128174565609 -167.28438572595354 70.31491120536592 -171.39037981318853 31.502585921255523 41.106904791787116 35.16268371864372 0 0 0 -1.702415580113323 58.654315012464735 -3.0058920912956504 -0.5819565836525699 43.020153366440766 -1.4143351742272035 0 0 0 9.899972239204235 -19.6092717805173 -8.131990765340026 -92.73078485476846 -24.92397164788439 -38.75065125859384 -26.230183259299753 1.2589457193479783 45.33537567553685 8.039126687146384 19.317688444915714 24.25174725659621 0 0 0 0 0 0 0 0 0 0 0 0 0 0 0 0 0 0 0 0 0 0 0 0 0 0 0 0 0 0 0 0 0 0 0 0 0 0 0 0 0 0 0 0 0 0 -17.627564720529413 0 0 -2.258437000420481 0 0 0 0 0 0 0 0 0 0 -10.632632958256353 -18.707016677281477 7.535547017202487 91.52212555527495 -23.976976023967126 38.56463651346028 27.360063898156778 1.9933014274117569 -45.97593466653418 -8.037770080767046 16.14167086283823 -18.60833338031871 0 0 0 0 0 0 0 0 0 0 0 0 0 0 0 0 0 0 0 0 0 0 0 0 0 0 0 0 0 0 0 0 0 0 0 0 0 0 0 0 0 0 0 0 0
0.1346301259557403 -6.823242776119431 0.6998540504200282 -180 -14.402329890483726 -1.8018889852918702e-15 -15.487671114021966 -5.062273084861771 36.51582313496055 166.15580623379833 71.92479624325905 169.87724179843934 -35.45652589214023 42.28659598992768 -37.54015709801824 0 0 0 14.175977334830176 -5.8748918043807645 -34.76014531898064 -167.1552222415703 70.0419588086048 -170.93642442705112 31.919424050441485 41.013526574206224 35.32583692775812 0 0 0 -1.6559106657383889 57.668535287930844 -2.9511340004432842 -0.5787381709357582 42.687392940260345 -1.4097048049920482 0 0 0 9.762646040816842 -19.434091943682084 -8.026781773945354 -92.71961243463717 -24.971501610221168 -38.6208084136641 -25.71856278821761 0.834229293287514 44.781397371055846 7.801535083223878 19.196856547275452 24.523630794291726 0 0 0 0 0 0 0 0 0 0 0 0 0 0 0 0 0 0 0 0 0 0 0 0 0 0 0 0 0 0 0 0 0 0 0 0 0 0 0 0 0 0 0 0 0 0 -17.781578583057104 0 0 -2.5146780122216676 0 0 0 0 0 0 0 0 0 0 -10.490220942313147 -18.54512254054361 7.441493168405488 91.53616355726331 -24.046811805623364 38.45125301707844 26.8269841381485 1.5614012900347063 -45.43658041817586 -7.759410146992021 16.065053974960815 -18.858206579553727 0 0 0 0 0 0 0 0 0 0 0 0 0 0 0 0 0 0 0 0 0 0 0 0 0 0 0 0 0 0 0 0 0 0 0 0 0 0 0 0 0 0 0 0 0
0.1346301259557403 -6.8415159955190346 0.720098342660103 -180 -12.800989355524093 -1.594284667381261e-15 -16.67840878534793 -6.129776487075521 37.17809422165319 165.8419980080272 71.37465893313008 168.90018471070988 -36.300081469027056 42.05484883029882 -37.91040833348399 0 0 0 15.357256067431567 -7.021260230053702 -35.43855665774269 -166.92019290962708 69.49455303698825 -170.05039658904397 32.75076026096886 40.82399762360502 35.648940826377086 0 0 0 -1.5710805325927832 55.687308774006404 -2.8495896929607962 -0.5724570952198687 42.02149792188911 -1.400586872973903 0 0 0 9.489391108815642 -19.082933987863207 -7.817986354182531 -92.69761775434314 -25.066633662227407 -38.360988713836825 -24.6797643850288 -0.0028982073892871896 43.65855650432434 7.324623629495497 18.958178840029994 25.068894170857636 0 0 0 0 0 0 0 0 0 0 0 0 0 0 0 0 0 0 0 0 0 0 0 0 0 0 0 0 0 0 0 0 0 0 0 0 0 0 0 0 0 0 0 0 0 0 -18.089758540598368 0 0 -3.0278890409142836 0 0 0 0 0 0 0 0 0 0 -10.206566204054058 -18.22059163573172 7.254878557037414 91.56475811795003 -24.186410354765673 38.2241770235309 25.74556408776301 0.7102090371648025 -44.34270833192089 -7.201473911125292 15.915200458295413 -19.359269409189405 0 0 0 0 0 0 0 0 0 0 0 0 0 0 0 0 0 0 0 0 0 0 0 0 0 0 0 0 0 0 0 0 0 0 0 0 0 0 0 0 0 0 0 0 0
0.1346301259557403 -6.850652739414972 0.7302204887801405 -180 -11.998086390778488 -1.4912026973636114e-15 -17.280647872393015 -6.65946202731784 37.518828109857395 165.69916083360854 71.09875153092032 168.42505790418062 -36.72016913134312 41.937414294957364 -38.09340732460967 0 0 0 15.955503491201043 -7.590446891614677 -35.78811905090182 -166.81376471707938 69.22019279409899 -169.61778618948588 33.16520825093717 40.72785880673561 35.808853654404714 0 0 0 -1.532350927574643 54.692432253440536 -2.8024005720933216 -0.5693933164333713 41.688395305760636 -1.3960982931772787 0 0 0 9.353454738924274 -18.906963308621727 -7.71439407574742 -92.68678699515137 -25.11423775927633 -38.23100971712763 -24.152752743414286 -0.4149083499098924 43.08985889265497 7.0853343200905705 18.84035837204598 25.34223588061345 0 0 0 0 0 0 0 0 0 0 0 0 0 0 0 0 0 0 0 0 0 0 0 0 0 0 0 0 0 0 0 0 0 0 0 0 0 0 0 0 0 0 0 0 0 0 -18.243925336093344 0 0 -3.284847010614942 0 0 0 0 0 0 0 0 0 0 -10.065326472563429 -18.057968032931264 7.162315728549196 91.57928119095575 -24.256182614379238 38.110532695373756 25.197412094105488 0.2913269660836641 -43.78838745442143 -6.921932859651887 15.84197524144929 -19.61042206295575 0 0 0 0 0 0 0 0 0 0 0 0 0 0 0 0 0 0 0 0 0 0 0 0 0 0 0 0 0 0 0 0 0 0 0 0 0 0 0 0 0 0 0 0 0
0.1346301259557403 -6.859789483310909 0.7403426349001778 -180 -11.195183822761114 -1.3887329455700412e-15 -17.88672303343162 -7.185548059022764 37.865536463453005 165.56527423952133 70.82248096282085 167.95861499762069 -37.138976482366076 41.81899041509548 -38.274906993549315 0 0 0 16.558068328723788 -8.155969053205196 -36.14414399487432 -166.71443135221372 68.94556324852446 -169.19198509355218 33.57870016773728 40.630846186086906 35.96761341508744 0 0 0 -1.495926272635661 53.69753184582716 -2.7574697690224945 -0.5663800585583335 41.35529332741258 -1.391656366422812 0 0 0 9.217997210726534 -18.730761044790338 -7.611351942242688 -92.67607123206739 -25.16186228951171 -38.10098813900846 -23.621639697274123 -0.8216497596734541 42.51735399576094 6.845621602409128 18.723621157723798 25.615906840270256 0 0 0 0 0 0 0 0 0 0 0 0 0 0 0 0 0 0 0 0 0 0 0 0 0 0 0 0 0 0 0 0 0 0 0 0 0 0 0 0 0 0 0 0 0 0 -18.398092227469796 0 0 -3.5418050585951364 0 0 0 0 0 0 0 0 0 0 -9.924492415128357 -17.8951269399776 7.070260146582769 91.59396414176376 -24.32592759306505 37.99680231085301 24.64523829273924 -0.12221340120518569 -43.230086068452756 -6.64216088993105 15.769929882874063 -19.861851960714343 0 0 0 0 0 0 0 0 0 0 0 0 0 0 0 0 0 0 0 0 0 0 0 0 0 0 0 0 0 0 0 0 0 0 0 0 0 0 0 0 0 0 0 0 0
0.1346301259557403 -6.878062971102783 0.7605869271402526 -180 -9.585543123720537 -1.1849665063682519e-15 -19.112896307211848 -8.22839608441952 38.578293222042326 165.32274126213895 70.26856052567908 167.049679497235 -37.97311984823576 41.579094085956775 -38.633554747917955 0 0 0 17.77883557736274 -9.277709501854506 -36.87717686168407 -166.53591376113474 68.39516779191801 -168.35920260928884 34.40316586643644 40.43414634643615 36.28178540906033 0 0 0 -1.4290521667233143 51.70037645641133 -2.673373199075936 -0.5604985125171156 40.688821528597906 -1.3829056579772876 0 0 0 8.948458298893067 -18.377605825827374 -7.40686775296907 -92.65499312943481 -25.257201197712476 -37.840789199209354 -22.544543509533614 -1.6208801694964707 41.3581406908855 6.364600690619047 18.493246969832253 26.164599604254256 0 0 0 0 0 0 0 0 0 0 0 0 0 0 0 0 0 0 0 0 0 0 0 0 0 0 0 0 0 0 0 0 0 0 0 0 0 0 0 0 0 0 0 0 0 0 -18.706573192334886 0 0 -4.056410119781306 0 0 0 0 0 0 0 0 0 0 -9.643990145718762 -17.56875539369754 6.887634466680732 91.6238261083025 -24.46533781721044 37.76906511794615 23.526364275332355 -0.9347008731427522 -42.09906667140773 -6.081555086229924 15.629295264480195 -20.36587164040891 0 0 0 0 0 0 0 0 0 0 0 0 0 0 0 0 0 0 0 0 0 0 0 0 0 0 0 0 0 0 0 0 0 0 0 0 0 0 0 0 0 0 0 0 0
